<svg xmlns="http://www.w3.org/2000/svg" width="46" height="62" viewBox="0 0 46 62">
  <g id="Virus_Quarantine" data-name="Virus Quarantine" transform="translate(-9 -1)">
    <rect id="Retângulo_1" data-name="Retângulo 1" width="46" height="5" transform="translate(9 58)" fill="#fff"/>
    <path id="Caminho_1" data-name="Caminho 1" d="M20,49a1,1,0,1,0,1,1A1,1,0,0,0,20,49Z" fill="#fff"/>
    <circle id="Elipse_1" data-name="Elipse 1" cx="2" cy="2" r="2" transform="translate(23 10)" fill="#fff"/>
    <path id="Caminho_2" data-name="Caminho 2" d="M52,21a20,20,0,1,0-40,0V56H52ZM42,14a2,2,0,1,1-2,2A2,2,0,0,1,42,14ZM25,8a4,4,0,1,1-4,4A4,4,0,0,1,25,8ZM20,53a3,3,0,1,1,3-3,3,3,0,0,1-3,3ZM39.27,40.69h0l-.94-.94A9.92,9.92,0,0,1,33,42v2a1,1,0,0,1-2,0V42a9.92,9.92,0,0,1-5.33-2.21l-.94.94h0a2,2,0,1,1-1.42-1.42h0l.94-.94A9.92,9.92,0,0,1,22.05,33H20a1,1,0,0,1,0-2h2.06a9.92,9.92,0,0,1,2.21-5.33l-.94-.94a2,2,0,1,1,1.41-1.42h0l.94.94A9.92,9.92,0,0,1,31,22.05V20a1,1,0,0,1,2,0v2.06a9.92,9.92,0,0,1,5.33,2.21l.94-.94h0a2,2,0,1,1,1.41,1.42c-1.62,1.62-.81.15.56,3.44A9.49,9.49,0,0,1,42,31h2a1,1,0,0,1,0,2H42a9.92,9.92,0,0,1-2.21,5.33l.94.94h0a2,2,0,1,1-1.42,1.42ZM45,50a2,2,0,1,1,2-2A2,2,0,0,1,45,50Z" fill="#fff"/>
    <path id="Caminho_3" data-name="Caminho 3" d="M38.32,27.1l-.66.66a1,1,0,0,1-1.42-1.42l.66-.66a8,8,0,0,0-9.8,0l.66.66a1,1,0,0,1-.71,1.71c-.46,0-.6-.18-1.37-.95a8,8,0,0,0,0,9.8l.66-.66a1,1,0,0,1,1.42,1.42l-.66.66a8,8,0,0,0,9.8,0l-.66-.66a1,1,0,0,1,1.42-1.42l.66.66A8,8,0,0,0,38.32,27.1Zm-8.44,5.61a2,2,0,1,1,.58-1.42,2,2,0,0,1-.58,1.42ZM32.71,37a1,1,0,1,1-.005-1.415A1,1,0,0,1,32.71,37Zm3.18-6a9.96,9.96,0,1,1,0-.06Z" fill="#fff"/>
  </g>
</svg>
