<svg xmlns="http://www.w3.org/2000/svg" width="31" height="36" viewBox="0 0 31 36"><g transform="translate(-398 -3386)"><circle cx="12" cy="12" r="12" transform="translate(401 3392)" fill="#fff"/><circle cx="1" cy="1" r="1" transform="translate(406 3399)" fill="#0a6ae0"/><circle cx="2.5" cy="2.5" r="2.5" transform="translate(414 3396)" fill="#0a6ae0"/><circle cx="0.5" cy="0.5" r="0.5" transform="translate(411 3403)" fill="#0a6ae0"/><circle cx="1" cy="1" r="1" transform="translate(407 3406)" fill="#0a6ae0"/><circle cx="1" cy="1" r="1" transform="translate(419 3403)" fill="#0a6ae0"/><circle cx="3.5" cy="3.5" r="3.5" transform="translate(410 3406)" fill="#0a6ae0"/><circle cx="1.5" cy="1.5" r="1.5" transform="translate(424 3395)" fill="#fff"/><path d="M4029.009,3398l3.837-1.4Z" transform="translate(-3607)" fill="none" stroke="#fff" stroke-width="1"/><g transform="translate(1 1)"><circle cx="2.5" cy="2.5" r="2.5" transform="translate(409 3385)" fill="#fff"/><path d="M4018.5,3387.5l1.846,5.939Z" transform="translate(-3607)" fill="none" stroke="#fff" stroke-width="1"/></g><g transform="translate(1)"><circle cx="2" cy="2" r="2" transform="translate(399 3392)" fill="#fff"/><path d="M4008,3394l4.425,3.771Z" transform="translate(-3607)" fill="none" stroke="#fff" stroke-width="1"/></g><g transform="translate(1 -1)"><circle cx="1.5" cy="1.5" r="1.5" transform="translate(397 3409)" fill="#fff"/><path d="M4005.5,3410.5l4.574-2.148Z" transform="translate(-3607)" fill="none" stroke="#fff" stroke-width="1"/></g><g transform="translate(-1 -1)"><circle cx="2" cy="2" r="2" transform="translate(426 3409)" fill="#fff"/><path d="M4035,3411l-6.362-3.019Z" transform="translate(-3607)" fill="none" stroke="#fff" stroke-width="1"/></g><circle cx="3" cy="3" r="3" transform="translate(414 3416)" fill="#fff"/><path d="M4024,3419l-.622-5.45Z" transform="translate(-3607)" fill="none" stroke="#fff" stroke-width="1"/></g></svg>