<svg xmlns="http://www.w3.org/2000/svg" xmlns:xlink="http://www.w3.org/1999/xlink" width="584.563" height="497.471" viewBox="0 0 584.563 497.471"><defs><linearGradient id="a" x1="0.5" y1="0.243" x2="0.321" y2="0.598" gradientUnits="objectBoundingBox"><stop offset="0" stop-color="#29323c"/><stop offset="1" stop-color="#485563"/></linearGradient><linearGradient id="b" y1="0.32" x2="0.173" y2="0.569" xlink:href="#a"/><linearGradient id="c" x1="0.643" y1="0.943" x2="0.4" y2="0.018" gradientUnits="objectBoundingBox"><stop offset="0" stop-color="#c3cfe2"/><stop offset="1" stop-color="#f5f7fa"/></linearGradient><linearGradient id="d" x1="0.618" y1="0.068" x2="0.324" y2="0.59" gradientUnits="objectBoundingBox"><stop offset="0" stop-color="#251323"/><stop offset="1" stop-color="#62345f"/></linearGradient><linearGradient id="e" x1="0.713" y1="0.805" x2="0.344" y2="-0.029" xlink:href="#c"/><linearGradient id="f" y1="0.779" x2="0.93" y2="0.269" gradientUnits="objectBoundingBox"><stop offset="0" stop-color="#09203f"/><stop offset="1" stop-color="#537895"/></linearGradient><linearGradient id="g" y1="0.812" x2="0.93" y2="0.242" xlink:href="#f"/><linearGradient id="h" x1="1.099" y1="0.121" x2="0.173" y2="0.597" gradientUnits="objectBoundingBox"><stop offset="0" stop-color="#485563"/><stop offset="1" stop-color="#29323c"/></linearGradient></defs><g transform="translate(-0.437 -61.1)"><g transform="translate(-751 -5336)"><g transform="translate(751 5336)"><g transform="translate(157 228.8)"><path d="M254.255,31c0,.2-56.784.338-126.815.338S.625,31.2.625,31s56.771-.338,126.815-.338S254.255,30.823,254.255,31Z" fill="#263238"/><text transform="translate(99.56 23)" font-size="27.3" font-family="Poppins-Bold, Poppins" font-weight="700"><tspan x="0" y="0">2 m</tspan></text><path d="M8.23,38.337a15.6,15.6,0,0,1-2.366-1.963c-1.417-1.3-3.341-3.081-5.473-5.122L.131,31l.26-.247.546-.507c2.275-2.145,4.368-4.043,5.9-5.408a16.471,16.471,0,0,1,2.6-2.093,16.211,16.211,0,0,1-2.262,2.444C5.734,26.637,3.693,28.6,1.4,30.745l-.546.507v-.494c2.119,2.054,3.991,3.9,5.33,5.278a13.988,13.988,0,0,1,2.041,2.3Z" fill="#263238"/><path d="M246.9,23.218a13.715,13.715,0,0,1,2.379,1.963c1.417,1.3,3.341,3.081,5.473,5.122l.26.247-.26.247-.546.507c-2.275,2.145-4.368,4.043-5.9,5.408a16.47,16.47,0,0,1-2.6,2.093,15.743,15.743,0,0,1,2.249-2.444c1.456-1.443,3.5-3.406,5.772-5.551l.546-.507v.481c-2.119-2.054-4-3.9-5.33-5.278a15.859,15.859,0,0,1-2.041-2.288Z" fill="#263238"/></g><g transform="translate(413.4 70.2)"><path d="M9.308,200.07,26.78,203.2c0,.013-2.587,16.38-4.147,26.3h0c-.678,4.317-1.172,7.418-1.183,7.475,6.4,6.539,6.331,16.926,6.825,23.244-4.563,1.716-4.771-6.292-5.2-8.593-5.616-3.874-5.785,8.515-6.5,9.5-.286.13,1.248,4.056,2.951,8.32.429,1.976-2.236,3.614-3.536,1.742-.975,2.041-2.847,1.014-4.42-1.365-1.391-.273-4.654-1.755-5.2-4.043-.195-.182-5.057-3.289-5.694-5.6-.546-12.22,5.954-27.3,5.954-27.3h0l.489-7.065.083.009Z" fill="#b78876"/><path d="M146.525,422.5l.564.751,10.894,14.557,13.618,9.537L152.655,482.3l-20.276-.274s1.536-4.769,11.326-7.153l.924-19.325L127.4,436.186" fill="url(#a)"/><g transform="translate(131.3 445.6)" opacity="0.6"><path d="M39.832,2.306,20.994,36.7.832,36.43l2.314-2.944,16.4-.669L36.945.3Z" fill="#fff"/></g><path d="M62.231,448.79l-.1,38.973-48,.609c.229-4.64,26.947-14.128,26.947-14.128L40.5,448.071Z" fill="url(#b)"/><g transform="translate(10.1 483.3)" opacity="0.6"><path d="M52.027,4.408,51.832.222,2.237,2.406s-2.3,1.04-2.015,2.6Z" fill="#fff"/></g><path d="M100.4,209c-1.456-1.9-76.31,3.354-76.31,3.354l-3.107-3.705s-3.835,12.038-3.9,22.464q-.633,54.695.973,80.855,1.163,18.945,7.334,54.462L40.17,452.79H62.231S64.1,378.153,63.7,361.4q-.412-17.145,0-63.747L71.734,361.4A36.543,36.543,0,0,0,79.3,378.131l48.321,60.034L147.3,422.058q-24.948-52.679-31.188-80.786c-3.922-17.666,2.166-58.373,0-90.671C115.4,239.988,104.572,214.409,100.4,209Z" fill-rule="evenodd" fill="url(#c)"/><path d="M57.664,0Q79.719.543,87.583,24.8c7.864,24.261,5.2,27.6,11.829,46.452q6.631,18.854,17.014,43.251,11.181,44.141-17.014,65.133T23,171.887Q-4.4,141.12,17.6,95.354,28.43,64.6,27.106,37.909T46.071,2.148A56.819,56.819,0,0,1,52.034.526,43.98,43.98,0,0,1,57.664,0Z" fill-rule="evenodd" fill="url(#d)"/><path d="M23.543,97.305a27.56,27.56,0,0,0-7.371,15.145,556.558,556.558,0,0,0-6.845,60.795c-.975,18.164-1,33.358-1,33.358l11.52,2.047s9.1-32.916,7.8-43.862S23.543,97.305,23.543,97.305Z" fill="#d78c1e"/><path d="M25.8,107.25a33.917,33.917,0,0,0-3.449,12.908c-.1,1.276-2.393,24.331-3.2,51.816-.456,15.481-.466,28.432-.466,28.432l5.391,1.744s4.258-28.054,3.65-37.384S25.8,107.25,25.8,107.25Z" fill="#62345f" opacity="0.481"/><path d="M71.656,76.479q13.149,4.73,18.98,7.54a153.33,153.33,0,0,1,15.558,9.1l-.129.4a16.851,16.851,0,0,1,3.967,5.02c2.171,4.355,11.453,23.569,11.453,23.569l.605-21.8,17.336-1.768s4.822,27.261,4.809,40.469c0,11.7-7.527,24.467-24.635,21.984-8.031-1.189-20.516-21.659-24.669-28.84q-4.162,17.568-4.3,27.886c-.325,25.333,13.632,51.32,14.495,58.556h0L18.98,214.916q5.8-26.636,6.373-37.873a130.847,130.847,0,0,0-3.642-37.794c-2.288-8.788,1.832-41.944,1.832-41.944-1.731.852,4.088-4.88,11.3-9.52a104.6,104.6,0,0,1,15.106-7.744h0Z" fill="#d78c1e"/><path d="M34.333,32.682c.52-8.034,5.291-13.247,13.3-12.376a96.14,96.14,0,0,0,9.8,11C69.4,42,77.641,38.875,77.711,40.491q.435,9.952-1.921,41.253a14.5,14.5,0,0,1-28.99-.416V74.334c0,.026-10.27-1.729-12.363-15.132C33.4,52.533,33.8,41.6,34.333,32.682Z" fill="#b78876"/><path d="M36.491,41.033c-.008,1.468.724,2.679,1.651,2.735a1.3,1.3,0,0,0,1.215-.626,3.321,3.321,0,0,0,.553-1.821c.008-1.468-.724-2.679-1.651-2.735a1.312,1.312,0,0,0-1.211.633,3.339,3.339,0,0,0-.557,1.814Z" fill="#263238"/><path d="M54.821,41.033c-.008,1.468.724,2.679,1.651,2.735a1.3,1.3,0,0,0,1.215-.626,3.321,3.321,0,0,0,.553-1.821c.008-1.468-.724-2.679-1.651-2.735a1.312,1.312,0,0,0-1.211.633,3.339,3.339,0,0,0-.557,1.814Z" fill="#263238"/><path d="M48.1,52.455c-.974-.308,1.079-15.327.871-15.405a63.466,63.466,0,0,0-3.9,9.1c-.468,1.3-.923,2.457-1.3,3.614a2.743,2.743,0,0,0-.26,1.846,1.2,1.2,0,0,0,.78.689,3.25,3.25,0,0,0,.806.117A12.233,12.233,0,0,0,48.1,52.455Z" fill="#263238" opacity="0.454"/><path d="M53.28,54.535c-.725-.229-1.1-11.141,0-15.541.567-2.269-1.669-4.875-1.723-4.895A111.374,111.374,0,0,0,46.371,46.15c-.468,1.3-.923,2.457-1.3,3.614a2.743,2.743,0,0,0-.26,1.846,1.2,1.2,0,0,0,.78.689,3.25,3.25,0,0,0,.806.117C47.393,52.552,52.282,54.646,53.28,54.535Z" fill="#b78876"/><path d="M46.8,74.334a34.125,34.125,0,0,0,17.953-4.745S60.2,78.767,46.8,77.48Z" opacity="0.896"/><path d="M48.893,56.914a3.315,3.315,0,0,1,2.99-1.3,3.094,3.094,0,0,1,2.106,1.131,1.924,1.924,0,0,1,.13,2.21,2.2,2.2,0,0,1-2.418.6,6.916,6.916,0,0,1-2.366-1.417,1.885,1.885,0,0,1-.52-.546.611.611,0,0,1,0-.689" fill="#c53f3f"/><path d="M53.56,53.742c-.3,0-.312,1.989-2.028,3.406s-3.9,1.2-3.9,1.482.481.39,1.378.416a4.966,4.966,0,0,0,3.237-1.118,4.381,4.381,0,0,0,1.573-2.86C53.924,54.236,53.7,53.729,53.56,53.742Z" fill="#263238"/><path d="M134.352,48.1l.115.013c1.37.262,1.506,1.216.993,3.355s1.192-.44,3.189-2.6c1.443-1.593,3.189.5,1.9,2.6,0,0,2.185-1.52,2.185.6s-3.849,8.487-3.169,8.718,4.027-4.21,5.365-4.273c.763-.031,1,1.1,0,2.956S136.329,75,134.635,76.984h0l.68,6.216h-.02l2.04,15.808-13.795,1.419a158.247,158.247,0,0,0-.528-17.227h-.019c-.293-2.474-.479-4.74-.709-6.418-.68-.807-2.539-2.933-2.675-4.977-.167-2.621,1.9-15.295,1.9-15.295s2.467-2.317,2.98.723a63.908,63.908,0,0,1,.387,7.17h0l5.176-10.619c1.161-2.39,3.043-5.933,4.412-5.671Z" fill="#b78876"/><path d="M32.773,50.31s2.21,2.392,7.072,1.677a89.167,89.167,0,0,1,17.927,1.3c5.083.962,12.194-1.443,12.194-1.443l4.992,11.518S64.766,76.206,47.788,76.18c-7.943,0-14-5.525-15.6-9.945S32.773,50.31,32.773,50.31Z" fill="#ebebeb"/><path d="M79.365,42H78.78a5.265,5.265,0,0,0-1.3.715,20.319,20.319,0,0,0-3.536,3.432,25.025,25.025,0,0,0-3.9,5.668,61.71,61.71,0,0,0,4.459-5.2,34.386,34.386,0,0,1,3.3-3.484,9.425,9.425,0,0,1,1.157-.845C79.183,42.146,79.365,42.055,79.365,42Z" fill="#ebebeb"/><path d="M73.814,63.7c0,.091.663-.156,1.625-.65a15.73,15.73,0,0,0,3.5-2.379,8.879,8.879,0,0,0,2.405-3.523c.351-1.053.286-1.755.208-1.755a13.7,13.7,0,0,0-.663,1.573,10.4,10.4,0,0,1-2.4,3.211,24.83,24.83,0,0,1-3.289,2.457A12.766,12.766,0,0,0,73.814,63.7Z" fill="#ebebeb"/><path d="M35.2,67.34A4.706,4.706,0,0,0,36.27,68,21.476,21.476,0,0,0,39.4,69.3a25.142,25.142,0,0,0,21.7-2.73,20.617,20.617,0,0,0,2.7-2.08c.6-.533.884-.871.858-.91s-1.378,1.131-3.822,2.6A26.468,26.468,0,0,1,39.546,68.9C36.829,68.081,35.256,67.223,35.2,67.34Z" fill="#263238"/><path d="M35.438,57.954a26.663,26.663,0,0,0,3.9,0c2.392-.078,5.707-.13,9.373,0s6.955.39,9.347.611a25.752,25.752,0,0,0,3.9.3,19.708,19.708,0,0,0-3.835-.767,84.668,84.668,0,0,0-9.386-.819,82.407,82.407,0,0,0-9.412.221A18.382,18.382,0,0,0,35.438,57.954Z" fill="#263238"/><path d="M63.414,61.1c-6.331,3.549-13.962,3.627-21.2,3.484a15.86,15.86,0,0,1-4.069-.416,5.629,5.629,0,0,1-3.3-2.236,161.629,161.629,0,0,0,29.029-.6" fill="#e0e0e0"/><path d="M77.106,44.79q.3-2.787,6.2-.47c3.606,1.415,4.036,7.864.326,12.075-2.362,2.681-5.772,2.374-7.18.837Z" fill="#b78876" fill-rule="evenodd"/></g><g transform="translate(0 61.1)"><path d="M26.442,322.933q6.422-19.682,12.844-39.338c1.924-5.889,4.017-12.064,8.619-16.224,2.678-2.418,6.773-3.991,9.893-2.158a7.632,7.632,0,0,1,3.367,6.227,21.665,21.665,0,0,1-1.209,7.241c-5.2,17.927-11.466,35.516-18.005,52.988l.663-1.209" fill="#c19f7b"/><path d="M43.628,313.963a11.921,11.921,0,0,1-4.329-1.3,11.57,11.57,0,0,1-3.9-2.249,22.1,22.1,0,0,1,4.173,1.625,21.177,21.177,0,0,1,4.056,1.924Z" fill="#263238"/><path d="M47.879,304.447a23.659,23.659,0,0,1-4.81-1.7,23.788,23.788,0,0,1-4.654-2.08,16.341,16.341,0,0,1,4.914,1.443,16.614,16.614,0,0,1,4.55,2.34Z" fill="#263238"/><path d="M51.883,296.6c-.117.156-2.171-1.157-4.9-2.327s-5.109-1.781-5.057-1.989a12.857,12.857,0,0,1,5.317,1.365A12.636,12.636,0,0,1,51.883,296.6Z" fill="#263238"/><path d="M54.392,286.689c-.13.156-1.9-1.3-4.381-2.6s-4.667-1.872-4.628-2.067a10.5,10.5,0,0,1,4.94,1.469A10.517,10.517,0,0,1,54.392,286.689Z" fill="#263238"/><rect width="3.835" height="7.605" transform="translate(22.334 289.289)" fill="#73675b"/><path d="M21.892,311.74V295.88h4.68V309.1s4.927.143,5.538,2.314c1.3,4.758.754,15.483.754,15.483Z" fill="#436d81"/><path d="M62.4,353.886c-1.3-7.969-3.367-15.847-3.744-23.92-.26-5.538.26-11.115-.429-16.6-.832-6.63-3.38-12.883-5.915-19.058-1.612-4-3.445-8.2-6.812-10.907a12.4,12.4,0,0,0-7.15-2.5h0c-4.706-1.924-17.6-2.47-21.684,6.175-2.158,4.589-2.418,9.828-3.653,14.755-1.664,6.656-.468,8.84-2.6,15.34-4.628,13.871-11.7,31.1-9.594,45.578.4,2.821,5.083,7.449,6.682,9.815,2.3,3.393,6.5,4.914,10.517,5.772A55.536,55.536,0,0,0,52,374.751c3.822-1.7,7.618-4.03,9.555-7.8C63.583,363.051,63.115,358.293,62.4,353.886ZM50.141,309.14c-2.119,1.807-5.3.923-8.086.78-3.354-.169-6.63.923-9.945,1.495s-7.007.546-9.672-1.508a9.893,9.893,0,0,1-3.458-6.617,26.9,26.9,0,0,1,.429-7.631,21.463,21.463,0,0,1,1.482-5.759,7.917,7.917,0,0,1,4.043-4.121c2.145-1.066,9.932-1.794,12.922-2.236a19.344,19.344,0,0,1,6.773,5.655A46.384,46.384,0,0,1,50.4,300a15.249,15.249,0,0,1,1.3,4.667,5.3,5.3,0,0,1-1.56,4.472Z" fill="url(#e)"/><path d="M27,254.8l15.34,3.633-.867,6.174s2.54,9.177,2.715,11.166l.031-.173s.952,5.563,1.7,6.49a6.5,6.5,0,0,1,.793,1.177,1.063,1.063,0,0,1-.135,1.057.944.944,0,0,1-.958.352,3.972,3.972,0,0,1-2.469-1.491c-.295,1.757-.594,3.467-.812,4.669a2.48,2.48,0,0,1-2.775,2.024.9.9,0,0,1-.237-.061,2.233,2.233,0,0,1-1.444-1.862,2.664,2.664,0,0,1-2.765,1.437c-1.95-.273-1.991-2.642-1.991-2.642a3.2,3.2,0,0,1-.351.283,2.39,2.39,0,0,1-2.367.212,2.309,2.309,0,0,1-1.346-1.922l-.072-1.073a2.323,2.323,0,0,1-2.125,1.093c-2.548-.435-2.146-6.143-2.146-6.143L27,264.02Z" fill="#ffbe9d"/><path d="M62.4,353.886c-1.3-7.969-3.367-15.847-3.744-23.92-.26-5.538.26-11.115-.429-16.6-.832-6.63-3.38-12.883-5.915-19.058-1.612-4-3.445-8.2-6.812-10.907a12.4,12.4,0,0,0-7.15-2.5h0c-4.706-1.924-17.6-2.47-21.684,6.175-2.158,4.589-2.418,9.828-3.653,14.755-1.664,6.656-.468,8.84-2.6,15.34-4.628,13.871-11.7,31.1-9.594,45.578.4,2.821,5.083,7.449,6.682,9.815,2.3,3.393,6.5,4.914,10.517,5.772A55.536,55.536,0,0,0,52,374.751c3.822-1.7,7.618-4.03,9.555-7.8C63.583,363.051,63.115,358.293,62.4,353.886ZM50.141,309.14c-2.119,1.807-5.3.923-8.086.78-3.354-.169-6.63.923-9.945,1.495s-7.007.546-9.672-1.508a9.893,9.893,0,0,1-3.458-6.617,26.9,26.9,0,0,1,.429-7.631,21.463,21.463,0,0,1,1.482-5.759,7.917,7.917,0,0,1,4.043-4.121c2.145-1.066,9.932-1.794,12.922-2.236a19.344,19.344,0,0,1,6.773,5.655A46.384,46.384,0,0,1,50.4,300a15.249,15.249,0,0,1,1.3,4.667,5.3,5.3,0,0,1-1.56,4.472Z" fill="none" fill-rule="evenodd"/><path d="M53.651,342.914a4.368,4.368,0,0,0-2.405-3.367c-2-.858-4.355.338-5.772,2s-2.249,3.744-3.549,5.5a12.246,12.246,0,0,1-9.776,4.8c-4.589,0-9.178-2.7-13.559-1.3a3.9,3.9,0,0,0-2.99,3.172,4.251,4.251,0,0,0,1.391,2.795,15.093,15.093,0,0,0,8.229,4.511,41.418,41.418,0,0,0,15.8-3.692c5.772-2.444,10.01-5.5,11.986-10.218A7.8,7.8,0,0,0,53.651,342.914Z" opacity="0.175"/><path d="M209.125,61.842c-.066,0-1.253-3.635-1.777-4.432-1.191-1.811-2.222-3.88-2.609-3.861a1.5,1.5,0,0,0-1.413,1.3q-1.417-1.186-1.811-4.3c-.266-2.118-1.257-2.118-2.131-1.536a3.175,3.175,0,0,0-1.406,2.309q-1.023,3.273-1.193-.89c-.107-2.489-1.065-2.563-1.981-2.118a2.935,2.935,0,0,0-1.555,2.118L191,66.466c-1.481-3.516-6.021-5.213-7.534-3.412-1.278,1.568,5.223,3.081,5.287,14.425v4.473L199.048,88.4c1.065-2.3,2.147-3.306,2.637-4.7a12.018,12.018,0,0,0,1.949-1.345c2.929-2.5,4.645-12.466,5.113-14.224C209.315,66.331,209.453,61.859,209.125,61.842Z" fill="#ffbe9d"/><path d="M86.746,457.249l.538,24.9S68.1,490.688,67.767,495.3h40.692l.689-37.814Z" fill="url(#f)"/><g transform="translate(59.8 491.4)" opacity="0.6"><path d="M48.659,4.849l-.091-3.9L2.86,1.807S.728,2.7.949,4.212Z" fill="#fff"/></g><g transform="translate(84.5 461.5)" opacity="0.3"><path d="M.936,1.027l.091,4.394L24.479,5.5l.1-5.057Z"/></g><path d="M85.579,471.419a4.615,4.615,0,0,0,2.392,0,10.569,10.569,0,0,0,2.509-.728,11.614,11.614,0,0,0,1.378-.715,2.7,2.7,0,0,0,.741-.559,1,1,0,0,0,.117-1.3,1.3,1.3,0,0,0-1.014-.546,3.068,3.068,0,0,0-.9.117,7.475,7.475,0,0,0-1.5.494,8.4,8.4,0,0,0-2.21,1.495c-1.118,1-1.508,1.872-1.43,1.924s.65-.65,1.794-1.482a9.178,9.178,0,0,1,2.145-1.17,7.7,7.7,0,0,1,1.378-.4c.507-.13.936-.13,1.066.091s0,.13,0,.273a2.457,2.457,0,0,1-.533.4,9.464,9.464,0,0,1-1.3.7,12.87,12.87,0,0,1-2.314.858A15.6,15.6,0,0,0,85.579,471.419Z" fill="#263238"/><path d="M166.994,458.536v24.316s20.538,8.834,20.772,13.4l-39.345.624-.13-38.337Z" fill="url(#g)"/><g transform="translate(148.2 492.7)" opacity="0.6"><path d="M.221,4.173.364.273,46.046,1.794s2.132.936,1.885,2.431Z" fill="#fff"/></g><path d="M164.349,316.537q5.794,53.319,3.268,159.621l-19.418.65L114.385,313.963,109.2,478.211l-23.6-5.382Q65.669,361.851,61.75,319.249T59.8,225.326l84.123-3.871Q158.555,263.218,164.349,316.537Z" fill="#29323c"/><path d="M187.473,78q-13.415,32.114-22.88,33.67C156.245,113.042,138.828,91,132.97,88.458,115.757,81.006,91.6,81.666,91.6,81.666L66.3,86.333l-3.562-2.171c-.932.7-25.763,6.891-34.818,33.878Q18.666,145.618,26.442,261.1l15.482,2.124q8.593-37.746,9.543-51.334t4.823-40.663l1.26,12.126,1.106,38.1,2.106,6.422,83.772-2.236q-8.562-39.348-11.564-59.02-1.154-7.562,0-31.421a50.228,50.228,0,0,0,40.116,6.017c.222-.06.956.065,1.178,0,23.374-6.8,27.807-54.057,27.807-54.057Z" fill="#672c5b"/><g transform="translate(162.5 109.2)" opacity="0.3"><path d="M1.88,0C-.161,1.677-.213,4.758.216,7.371a34.5,34.5,0,0,0,7.423,16.3c.6.728,1.417,1.482,2.34,1.3s1.391-1.586,1.3-2.6a15.951,15.951,0,0,0-2-5.694L1.126.481"/></g><g transform="translate(55.9 136.5)" opacity="0.3"><path d="M3.029,76.518A19.773,19.773,0,0,0,10,64.181a49.4,49.4,0,0,0,0-14.456C8.06,32.916,4.017,16.432,0,0Q1.677,39,3.367,77.909"/></g><g transform="translate(32.2 183.3)" opacity="0.3"><path d="M2.016,10.543a13.663,13.663,0,0,0-1.2-3.9,7.5,7.5,0,0,1-.7-3.991,3.029,3.029,0,0,1,2.7-2.6c1.755,0,2.808,1.872,3.6,3.445a38.337,38.337,0,0,0,7.41,10.127,11.986,11.986,0,0,1,2.6,3.146A3.367,3.367,0,0,1,16,20.67c-1.3,1.3-3.575.559-5.2-.377A19.994,19.994,0,0,1,1.7,9.581"/></g><g transform="translate(46.8)"><path d="M15.1,83.772a15.369,15.369,0,0,0,30.479-3.8l-.811-9.533S56.852,67.47,55.943,55.2c-.157-2.1-.2-19.723-3.625-27.636-.487-1.128-.669-5.025-3.8-8.046C42.051,13.279,30.029,6.688,25.968,7.237L27.9,12.574c-6.086.887-13.482-1.139-17.087,3.843A22.764,22.764,0,0,0,6.828,33.686Z" fill="#ffbe9d"/><path d="M44.825,70.468A28.612,28.612,0,0,1,28.449,67.31s4.545,8.5,16.683,6.327Z" fill="#263238" opacity="0.377"/><path d="M49.538,33.572c.087,1.719-.591,3.255-1.536,3.476a1.168,1.168,0,0,1-1.271-.551,3.977,3.977,0,0,1-.67-2.034c-.087-1.719.591-3.255,1.536-3.476a1.168,1.168,0,0,1,1.271.551A3.977,3.977,0,0,1,49.538,33.572Z" fill="#263238"/><path d="M29.666,39.442a1.168,1.168,0,0,1-1.271-.551,3.977,3.977,0,0,1-.67-2.034c-.1-1.719.577-3.267,1.523-3.476a1.174,1.174,0,0,1,1.275.55,3.986,3.986,0,0,1,.678,2.035C31.288,37.685,30.61,39.221,29.666,39.442Z" fill="#263238"/><path d="M36.987,32.323c.209-.1,2.334,3.907,4.767,8.956.59,1.229,1.155,2.457,1.683,3.575a2.74,2.74,0,0,1,.418,1.855,1.228,1.228,0,0,1-.737.774,3.194,3.194,0,0,1-.8.184,13.12,13.12,0,0,1-3.108.283C40.175,47.548,36.779,32.421,36.987,32.323Z" fill="#263238" opacity="0.619"/><path d="M34.134,27.007c.209-.1,5.188,9.222,7.62,14.271.59,1.229,1.155,2.457,1.683,3.575a2.74,2.74,0,0,1,.418,1.855,1.228,1.228,0,0,1-.737.774,3.194,3.194,0,0,1-.8.184c-1.021.218-4.288,2.664-5.332,2.634.469-.2-3.973-4.188-4.11-8.5A110.485,110.485,0,0,1,34.134,27.007Z" fill="#ffbe9d"/><path d="M55.476,46.917s-2.088,2.26-6.683,1.585A84.263,84.263,0,0,0,31.852,49.73c-4.8.909-11.523-1.351-11.523-1.351L15.612,59.2S25.243,71.34,41.287,71.315c7.506,0,13.231-5.221,14.742-9.4S55.476,46.917,55.476,46.917Z" fill="#ebebeb"/><path d="M11.447,39.079h.541a4.828,4.828,0,0,1,1.228.676,19.656,19.656,0,0,1,3.354,3.256,23.256,23.256,0,0,1,3.685,5.369,63.464,63.464,0,0,1-4.214-4.914,31.523,31.523,0,0,0-3.12-3.3,8.907,8.907,0,0,0-1.093-.8C11.656,39.214,11.447,39.128,11.447,39.079Z" fill="#ebebeb"/><path d="M16.693,59.632a4.578,4.578,0,0,1-1.536-.627,15.184,15.184,0,0,1-3.3-2.26A8.514,8.514,0,0,1,9.58,53.4c-.332-1-.283-1.646-.2-1.658a12.641,12.641,0,0,1,.627,1.5,9.828,9.828,0,0,0,2.273,3.022A24.852,24.852,0,0,0,15.39,58.6C16.226,59.2,16.729,59.546,16.693,59.632Z" fill="#ebebeb"/><path d="M53.179,63.023a3.968,3.968,0,0,1-1.007.627,20.3,20.3,0,0,1-2.961,1.229,23.759,23.759,0,0,1-20.5-2.58,20.761,20.761,0,0,1-2.555-1.867,3.907,3.907,0,0,1-.811-.86c.074-.1,1.3,1.057,3.612,2.457a25.074,25.074,0,0,0,20.123,2.531C51.643,63.723,53.13,62.888,53.179,63.023Z" fill="#263238"/><path d="M52.958,54.153a25.2,25.2,0,0,1-3.685,0c-2.26-.074-5.393-.123-8.857,0s-6.572.369-8.833.577a24.423,24.423,0,0,1-3.686.283,18.624,18.624,0,0,1,3.686-.725,80.012,80.012,0,0,1,8.87-.774,77.948,77.948,0,0,1,8.894.209A18.428,18.428,0,0,1,52.958,54.153Z" fill="#263238"/><path d="M26.521,57.126c6.02,3.3,13.194,3.428,20.037,3.3a15.565,15.565,0,0,0,3.845-.405,5.258,5.258,0,0,0,3.12-2.113,152.715,152.715,0,0,1-27.432-.565" fill="#e0e0e0"/><path d="M13.724,43.106,14.84,33.34Q15.169,25.2,20.255,24c5.086-1.2,14.953-.657,17.453,0s13.054,3.774,18.284-2.344S59.55,6.314,57.771,3.92A9.465,9.465,0,0,0,46.811.788c-4.923,1.93-2.932,5.219-2.932,5.219q-2-5.775-4.062-5.953-4.581-.471-5.863,3.185C32.671,6.894,26.777.34,23.9,1.789s-3.643,3.019-3.643,4.217-3.2,4.456-8.808,2.827S.463,17.318,1.167,20.661.9,28.553.235,30.947s-.281,20.13,6.252,25.531q6.533,5.4,4.3,0L7.673,38.9Z" fill-rule="evenodd" fill="url(#h)"/><path d="M11.447,39.079c-.209-.061-8.6-1.757-7.641,6.609s9.177,5.627,9.165,5.393S11.447,39.079,11.447,39.079Z" fill="#ffbe9d"/></g></g></g></g></g></svg>