<svg xmlns="http://www.w3.org/2000/svg" xmlns:xlink="http://www.w3.org/1999/xlink" width="538.661" height="497.874" viewBox="0 0 538.661 497.874"><defs><linearGradient id="a" y1="0.831" x2="0.93" y2="0.227" gradientUnits="objectBoundingBox"><stop offset="0" stop-color="#09203f"/><stop offset="1" stop-color="#537895"/></linearGradient><linearGradient id="b" x1="1" y1="0.5" x2="-0.32" y2="0.183" gradientUnits="objectBoundingBox"><stop offset="0" stop-color="#251323"/><stop offset="1" stop-color="#62345f"/></linearGradient><linearGradient id="c" x1="0.55" y1="1.006" x2="-0.185" y2="-0.069" xlink:href="#b"/></defs><g transform="translate(-0.935 -110.55)"><g transform="translate(-153 -4529)"><g transform="translate(153 4529)"><g transform="translate(0 109.948)"><circle cx="105.748" cy="105.748" r="105.748" transform="translate(122.091 286.515)" fill="url(#a)"/><g transform="translate(138.678 271.83)" opacity="0.3"><path d="M.436,177.916c10.724.514,19.26-6,24.117-15.58s5.868-20.553,6.8-31.244l3.779-43.476c.646-7.426,1.326-15.017,4.227-21.9S47.758,52.642,55,50.8c7.508-1.84,16.26,1.077,22.708-3.2,6.149-4.061,7.459-12.995,13.426-17.3,6.348-4.591,15.249-2.2,22.343,1.094a111.367,111.367,0,0,1,35.935,26.653c10.044,11.254,18.68,25.211,32.935,30.183,4.177,1.459,9.282,1.856,12.647-1.044,4.973-4.31,2.867-12.4-.1-18.232A126.931,126.931,0,0,0,111.605,3.481C95.411-.282,78.19-.746,62.328,4.243s-30.2,15.8-37.625,30.68c-8.42,16.89-4.376,37.029-7.79,55.593-5.486,29.918-11.785,58.725-16.459,87.4" opacity="0.795"/></g><path d="M293.593,426.077a4.226,4.226,0,0,1,.149-.912c.166-.663.381-1.508.63-2.536.133-.564.3-1.177.464-1.84s.265-1.425.414-2.2c.282-1.658.713-3.315.912-5.42.116-1.011.249-2.055.4-3.149s.149-2.254.232-3.448c.215-2.387.166-4.973.166-7.625a97.793,97.793,0,0,0-2.055-17.3,100.23,100.23,0,0,0-5.287-16.575c-1.111-2.437-2.122-4.79-3.315-6.862-.58-1.044-1.077-2.088-1.658-3.033l-1.658-2.718c-1.028-1.757-2.155-3.216-3.066-4.542-.464-.663-.878-1.293-1.309-1.84l-1.177-1.475-1.658-2.072a4.607,4.607,0,0,1-.53-.762,4.094,4.094,0,0,1,.663.646l1.74,1.972,1.243,1.442c.448.53.878,1.144,1.359,1.79.961,1.326,2.138,2.751,3.2,4.508l1.658,2.718c.6.945,1.111,1.972,1.658,3.033a64.81,64.81,0,0,1,3.315,6.879,89.007,89.007,0,0,1,7.409,34.211,76.281,76.281,0,0,1-.249,7.691c-.1,1.193-.133,2.354-.282,3.464s-.315,2.155-.464,3.182c-.232,2.022-.7,3.829-1.028,5.42-.182.779-.331,1.525-.5,2.2l-.547,1.823c-.315,1.011-.564,1.84-.762,2.5a3.6,3.6,0,0,1-.066.829Z" fill="#fafafa"/><path d="M289.317,440a39.034,39.034,0,0,1-9.067,15.647c-.2-.149,2.221-3.414,4.707-7.724S289.085,439.9,289.317,440Z" fill="#fafafa"/><path d="M223.22,288.505q17.278-1.5,35.549,11.221L292.7,240.52l-10.359-36.382q-29.989,9.823-46.738,10.177t-52.066-8.088l-29.57.961-45.2,21.746,16.873,58.51-5.138,24.15,45.482-3.8Q205.942,290.008,223.22,288.505Z" fill="#e79d81"/><path d="M245.31,234.886c0,.7-1.535,1.144-3.345.945s-3.315-.9-3.284-1.641,1.535-1.144,3.376-.945S245.34,234.14,245.31,234.886Z" fill="#aa6550"/><path d="M120.5,311.428q-7.938,50.49-10.956,77.934c-2.074,18.863,0,82.939-6.773,90.492-7.631,8.508-28.739,17-30.206,18.623h54.963c1.192-.89,10.468-51.848,20.119-104.387a663.279,663.279,0,0,1,23.225-88.778Z" fill="#e79d81"/><path d="M160.691,205.686q-15.2-46.508-17-71.755t3.953-84.455q5.013-4.895,5.989-7.955c4.327-13.563,1.725-22.735,1.806-26.206.2-7.89-1.868-11.2-3.343-11.155-1.972,0-5.978.885-6.343-2S140.639.8,139.23,3.481c-1.558,3.017-8.171,21.829-10.376,27.166-.243.971-.955,2.918-1.863,3.34s-2.045-.1-2.944-.538c-5.337-2.171-10.938-2.315-11.826,0-.477,1.243,3.127,3.466,3.986,3.96a20.3,20.3,0,0,1,5.354,4.111c1.79,1.939,3.216,3.646,4.392,5.122q-15.841,60.459-18.813,84.373c-7.132,57.4-1.765,90.451,1.956,98.93" fill="#e79d81"/><path d="M137.572,252.039a19.791,19.791,0,0,1-11.735,25.293l-77.9,28.841a6.431,6.431,0,0,1-8.055-3.315L26.354,273.885a19.326,19.326,0,0,1-.5-15.17,4.123,4.123,0,0,1,.2-.434c2.686-5.074,18.686-15.6,23.025-17.214,7.772-2.889,15.3-5.9,21.332-5.9,19.033-2.009,25.442,10.475,25.442,10.475l16.89-5.669a19.791,19.791,0,0,1,24.863,12.017Z" fill="#e79d81"/><path d="M125.208,285.736c60.267-13.359,49.924,18.763,50.454,18.564,8.462-.488,46.29-9.949,37.373-15.518-4.947-3.089-12.1-28.438-12.3-50.2a173.284,173.284,0,0,1,2.94-32.552H183.535c-16.8-15.2-33.507,0-33.507,0q-7.414,9.317-13.382,12.6-8.839,4.865-27.881,9.94l2.3,8.188s22.26-10.625,30.283,10.939c8.288,22.244-17.586,33.15-17.586,33.15Z" fill="#925499"/><path d="M96.135,244.965A73.158,73.158,0,0,1,97.909,276.8s10.111-12.043,2.553-33.15Z" fill="#220f0a" opacity="0.588"/><path d="M43.986,243.652q36.261-18.74,51.867,1.989,7.061,14.677,1.126,27.217t-10.6,17.425l-13.814,4.723Z" fill="#e79d81"/><path d="M68.14,257c-.834-1.116-19.343,8.155-19.525,7.989s4.31-4.293,10.078-9.067L62.77,252.6a3.729,3.729,0,0,1,2.287-1.144,1.658,1.658,0,0,1,1.243.7,4.625,4.625,0,0,1,.5.995A24.114,24.114,0,0,1,68.14,257Z" fill="#263238" opacity="0.593"/><path d="M48.664,247.786c1.2-.624,2.524.258,2.967,1.974a4.515,4.515,0,0,1,.02,2.495,2.921,2.921,0,0,1-1.23,1.763c-1.2.614-2.52-.25-2.984-1.951a4.549,4.549,0,0,1-.015-2.512A2.935,2.935,0,0,1,48.664,247.786Z" transform="translate(-151.53 408.944) rotate(-117)" fill="#263238"/><path d="M73.782,256.889c-.237-.317,7.638,23.862,4.123,26.025-1.465.9-27.26-.939-29.29-.666-9.228,1.24.109-17.163,0-17.262-.182-.166,4.31-4.293,10.078-9.067L62.77,252.6a3.729,3.729,0,0,1,2.287-1.144,1.658,1.658,0,0,1,1.243.7,4.625,4.625,0,0,1,.5.995c.253.513.388,1.913,1.343,2.768Q68.7,256.421,73.782,256.889Z" fill="#e79d81"/><path d="M56.355,271.541c1.2-.6,2.52.273,2.984,1.972a4.572,4.572,0,0,1,.015,2.5,2.981,2.981,0,0,1-1.225,1.777c-1.2.611-2.526-.264-2.984-1.972a4.572,4.572,0,0,1-.015-2.5,2.981,2.981,0,0,1,1.225-1.777Z" transform="translate(-167.5 442.625) rotate(-115)" fill="#263238"/><path d="M72.936,261.741a48.877,48.877,0,0,0,2.407-4.542c.922-2.439,1.127-5.161,1.306-5.237.348-.149.729.448,1.16,1.658a6.829,6.829,0,0,1,0,4.674,5.9,5.9,0,0,1-3,3.315C73.665,261.924,72.986,261.857,72.936,261.741Z" transform="translate(-59.902 25.915) rotate(-14)" fill="#ed5c63" fill-rule="evenodd"/><path d="M183.866,271.432a39.038,39.038,0,0,0,2.342-9.242c.6-5.869-.218-12.745-1.414-14.079a22.674,22.674,0,0,0-4.193-3.7c-.331-.2-.464-.3-.448-.331s.182,0,.53.133a15.564,15.564,0,0,1,4.591,3.431,16.94,16.94,0,0,1,4.508,9.116,16.194,16.194,0,0,1-2.669,11.254,14.917,14.917,0,0,1-2.3,2.7C184.281,271.217,183.982,271.465,183.866,271.432Z" fill="#263238" opacity="0.42"/><path d="M502.5,429.193s25.857,26.3,31.492,35.62c5.354,8.849,5.59,30.519,5.6,32.663v.172l-43.424.812s-.232-3.7-.481-6.879c-.1-1.234,4.942-.646,7.927-4.94a24.1,24.1,0,0,0,2.425-5.415,19.756,19.756,0,0,0-1.223-8.947q-3.357-7.724-21.776-20.445l8.288-14.918C494.78,430.6,502.5,429.193,502.5,429.193Z" fill="#e79d81"/><path d="M413.46,339.575c5.085,3.915-2.294-16.137-6.577-22.273-2.968-4.129-4.2-10.47-5.834-15.394l17.089-34.834-24.4-13.068q-5.625,20.458-9.875,29.739-2.258,4.93-8.752,11.125c-1.162,1.555-1.992,5.568-.74,7.038q20.34,22.839,33.246,35.275Q407.741,337.3,413.46,339.575Z" fill="#e79d81"/><path d="M255.584,297.757c-.011-.02,0-.018.046.005l.009,0,.64-1.118c21.489-38.238,15.526-89.544,15.277-91.6l-.008-.064,3.755-.872,52.931-19.38,84.582-21.485a32.667,32.667,0,0,1,37.592,48.018q-10.546,20.089-16.15,30.233-7.742,14.016-23.886,42.247-6.683-10.007-23.611-12.6l6.115-43.948-63.575,35.6,5.364,4.279L514.231,440.9c-12.2.354-15.76,8.776-18.871,20.579-1.655,6.286-63.1-29.4-117.463-69.217C320.736,350.4,260.463,301.2,255.862,297.917l-.243-.114Z" fill="#485563"/><circle cx="18.233" cy="18.233" r="18.233" transform="translate(8.288 308.295)" fill="url(#b)"/><path d="M44.429,243.542q-3.506,19.281-11.112,26.025,29.7,5.841,37.027,29.012l15.935-6.62q3.857,14.216-11.922,22.869a65.218,65.218,0,0,1-35.083,7.754q-23.31-4.146-32.644-19.445T3.261,263.83q5.484-16.361,18.523-20.977T44.429,243.542Z" fill-rule="evenodd" fill="url(#c)"/><path d="M69.8,294.488c-.713,3.017,1.658,7.707,4.74,8.486a7.21,7.21,0,0,0,7.84-3.58c1.459-2.735,1.89-4.873,0-7.392" fill="#e79d81"/><path d="M83.887,291.908c.875-.6,1.833.273,2.17,1.972a6.228,6.228,0,0,1,.011,2.5,3.147,3.147,0,0,1-.891,1.777c-.875.611-1.838-.264-2.171-1.972a6.228,6.228,0,0,1-.011-2.5,3.147,3.147,0,0,1,.891-1.777Z" transform="translate(-147.135 496.335) rotate(-115)" fill="#d6007a"/></g></g></g></g></svg>