<svg xmlns="http://www.w3.org/2000/svg" width="75.245" height="75.245" viewBox="0 0 75.245 75.245">
  <path id="heart" d="M37.622,0A37.622,37.622,0,1,0,75.245,37.622,37.644,37.644,0,0,0,37.622,0Zm0,2.894A34.728,34.728,0,1,1,2.894,37.622,34.706,34.706,0,0,1,37.622,2.894ZM29.89,23.333c-5.337,0-8.863,4.209-8.863,9.677,0,2.8,2.17,6.347,5.517,9.858a70.5,70.5,0,0,0,11.034,9.044,68.946,68.946,0,0,0,11.033-9.044c3.335-3.53,5.562-7.215,5.607-9.948.09-5.477-3.255-9.586-8.592-9.586-2.1,0-4.35,1.1-6.964,3.708l-.995,1.085-1.085-1.085S31.99,23.333,29.89,23.333Z" fill="#fff"/>
</svg>
