<svg xmlns="http://www.w3.org/2000/svg" width="62" height="62" viewBox="0 0 62 62">
  <g id="Death" transform="translate(-1 -1)">
    <path id="Caminho_236" data-name="Caminho 236" d="M33.66,53.57,33.51,53H6v4H35.15a16.85,16.85,0,0,1-1.49-3.43Z" fill="#fff"/>
    <path id="Caminho_237" data-name="Caminho 237" d="M36.52,59H4.12A3.12,3.12,0,0,0,1,62.12V63H41.27a16.06,16.06,0,0,1-4.75-4Z" fill="#fff"/>
    <path id="Caminho_238" data-name="Caminho 238" d="M29,22V16H27v6a1,1,0,0,1-1,1H20v2h6a1,1,0,0,1,1,1V40h2V26a1,1,0,0,1,1-1h6V23H30A1,1,0,0,1,29,22Z" fill="#fff"/>
    <path id="Caminho_239" data-name="Caminho 239" d="M33,48H15a1,1,0,0,1-1-1V20a14,14,0,0,1,28,0V34.62a15.75,15.75,0,0,1,4.71-1.46c.42,0,.29,1.36.29-13.16A19,19,0,1,0,9,20V51H33.12A15.84,15.84,0,0,1,33,48Z" fill="#fff"/>
    <path id="Caminho_240" data-name="Caminho 240" d="M28,8A12,12,0,0,0,16,20V46c19.2,0,17.24.18,17.37-.41A16,16,0,0,1,40,35.78V20A12,12,0,0,0,28,8ZM38,22v4a1,1,0,0,1-1,1H31V41a1,1,0,0,1-1,1H26a1,1,0,0,1-1-1V27H19a1,1,0,0,1-1-1V22a1,1,0,0,1,1-1h6V15a1,1,0,0,1,1-1h4a1,1,0,0,1,1,1v6h6A1,1,0,0,1,38,22Z" fill="#fff"/>
    <path id="Caminho_241" data-name="Caminho 241" d="M49,35A14,14,0,0,0,37.52,57C45.07,68.1,63,62.84,63,49A14,14,0,0,0,49,35Zm9,15H56.94a8.13,8.13,0,0,1-1.62,3.9l1.39,1.39a1,1,0,0,1-1.42,1.42L53.9,55.32A8.13,8.13,0,0,1,50,56.94V58a1,1,0,0,1-2,0V56.94a8.13,8.13,0,0,1-3.9-1.62l-1.39,1.39a1,1,0,0,1-1.42-1.42l1.39-1.39A8.13,8.13,0,0,1,41.06,50H40a1,1,0,0,1,0-2h1.06a8.13,8.13,0,0,1,1.62-3.9l-1.39-1.39a1,1,0,0,1,1.42-1.42l1.39,1.39A8.13,8.13,0,0,1,48,41.06V40a1,1,0,0,1,2,0v1.06a8.13,8.13,0,0,1,3.9,1.62l1.39-1.39a1,1,0,0,1,1.42,1.42L55.32,44.1A8.13,8.13,0,0,1,56.94,48H58a1,1,0,0,1,0,2Z" fill="#fff"/>
    <path id="Caminho_242" data-name="Caminho 242" d="M54.91,48A6,6,0,0,0,50,43.09a1,1,0,1,1-2,0A6,6,0,0,0,43.09,48a1,1,0,1,1,0,2A6,6,0,0,0,48,54.91a1,1,0,0,1,2,0A6,6,0,0,0,54.91,50a1,1,0,1,1,0-2ZM46.5,49A1.5,1.5,0,1,1,48,47.5,1.5,1.5,0,0,1,46.5,49ZM49,52a1,1,0,1,1,1-1A1,1,0,0,1,49,52Zm3-3a1,1,0,1,1,1-1A1,1,0,0,1,52,49Z" fill="#fff"/>
  </g>
</svg>
