<svg xmlns="http://www.w3.org/2000/svg" xmlns:xlink="http://www.w3.org/1999/xlink" width="336.819" height="594.264" viewBox="0 0 336.819 594.264"><defs><linearGradient id="a" x1="0.745" y1="0.068" x2="0.136" y2="0.59" gradientUnits="objectBoundingBox"><stop offset="0" stop-color="#251323"/><stop offset="1" stop-color="#62345f"/></linearGradient><linearGradient id="b" x1="0.259" y1="0.185" x2="0.732" y2="0.783" gradientUnits="objectBoundingBox"><stop offset="0" stop-color="#6088ed"/><stop offset="1" stop-color="#3c56c7"/></linearGradient><linearGradient id="c" x1="0.057" y1="0.377" x2="0.927" y2="0.611" xlink:href="#b"/><linearGradient id="d" y1="0.514" x2="0.93" y2="0.488" gradientUnits="objectBoundingBox"><stop offset="0" stop-color="#09203f"/><stop offset="1" stop-color="#537895"/></linearGradient><linearGradient id="e" x1="0.572" y1="0.367" x2="0.019" y2="0.636" gradientUnits="objectBoundingBox"><stop offset="0" stop-color="#29323c"/><stop offset="1" stop-color="#485563"/></linearGradient><linearGradient id="f" y1="0.635" x2="1.315" y2="0.352" xlink:href="#d"/><linearGradient id="g" x1="0.5" y1="0.243" x2="0.411" y2="0.598" gradientUnits="objectBoundingBox"><stop offset="0" stop-color="#29323c"/><stop offset="1" stop-color="#485563"/></linearGradient><linearGradient id="h" x1="0.836" y1="0.165" x2="0" y2="0.57" xlink:href="#a"/></defs><g transform="translate(-922.935 -8039)"><g transform="translate(794 8039)"><g transform="translate(128.7)"><path d="M277.734,18.72c9.086,18.793,6.662,25.106,14.323,39.711q7.661,14.6,17.47,32.141,12.917,34.192-19.657,50.453t-88.281-6.006q-22.7-32.343-10.127-53.385c1.159-1.939,7.183-27.869,8.627-47.911C200.885,22.685,213.641,0,238.316,0,258.6,0,273.653,10.277,277.734,18.72Z" fill-rule="evenodd" fill="url(#a)"/><path d="M268.268,43.713V78.2a52.845,52.845,0,0,0,4.574,21.737c-.168,10.745-3.694,50.249-15.189,49.912l-19.182,23.994c-11.625-.262-7.778-53.836-7.29-63.978.807-16.8,1.537-28.389,1.519-28.3s-19.207-28.114-18.364-40.881C215.084,29.216,268.354,40.21,268.268,43.713Z" fill="#ffbe9d"/><path d="M232.7,87.273A48.672,48.672,0,0,0,258.365,80.5s-6.5,13.793-25.665,11.921Z"/><path d="M231.764,91.532c16.542,0,38.376-19.054,38.376-38.18S256.73,18.72,240.188,18.72s-28.576,14.6-28.576,31.824S215.222,91.532,231.764,91.532Z" fill="#ffbe9d"/><g transform="translate(200.923 303.562) rotate(-67)" opacity="0.594"><path d="M230.671-50.544q-1.123-8.105-4.415-10.361c-3.291-2.256,1.943-7.212,5.3-8.625a7.757,7.757,0,0,0,.745-3.206q0-1.558,15.376,5.812Z"/></g><path d="M227.991,58.239q-.572,3.512-2.247,4.489c-1.675.977.989,3.125,2.7,3.737a2.954,2.954,0,0,1,.379,1.389c0,.19,1.218,10.771,2.147,10.5a12.755,12.755,0,0,0,2.749.243c2.9-.272,7.186-1.364,8.639-3.044a2.442,2.442,0,0,1,.8-.836,16.879,16.879,0,0,0,4.185-4.183q.836-1.4,2.208-8.975a55.479,55.479,0,0,1-7.919-5.263c-4.612-4.094-6.635-8.373-7.708-9.253Q231.578,45.124,227.991,58.239Z" transform="translate(-6.418 33.647) rotate(-8)" fill="#ffbe9d"/><path d="M229.243-71.6q4.168-3.885,6.69-4.671,1.556-2.314-1.625-2.314a8.828,8.828,0,0,0-5.719,2.314c-1.556,1.681-1.742,4.193-1.292,4.671A1.255,1.255,0,0,0,229.243-71.6Z" transform="translate(468.98 130.06) rotate(-149)" fill="#fb5454" fill-rule="evenodd"/><path d="M215.852,55.938c-.008,2.123.8,3.875,1.815,3.956.48.073.954-.256,1.317-.916a5.927,5.927,0,0,0,.612-2.594c.016-2.118-.783-3.875-1.8-3.956-.482-.082-.96.244-1.326.9a5.916,5.916,0,0,0-.617,2.605Z" fill="#263238"/><path d="M238.316,55.937c-.016,2.118.783,3.874,1.8,3.955.482.082.96-.244,1.326-.9a5.913,5.913,0,0,0,.617-2.6c.008-2.122-.8-3.874-1.815-3.955-.481-.082-.957.245-1.321.906a5.9,5.9,0,0,0-.608,2.6Z" fill="#263238"/><path d="M272.231,98.508q14.505,5.217,19.618,7.592c9.863,4.581,14.692,8.338,16.78,9.234,4.755,2.04-7.488,46.8-7.488,46.8l1.872,92.009a11.588,11.588,0,0,1-12.636,11.775l-83.136-7.394-1.211-17.567-72.247,20.151-5.728-30.851,51.424-12.617s4.624-43.992,6.215-65.071,15.07-29.54,15.07-29.54h0l.032.2.006-.223q8.135-5.613,13.656-8.837t17.532-9.375q-2.521,24.022-1.272,36.224T238.5,170.8q9.362-16.657,16.41-29.777T272.231,98.508Z" fill="#d7741e"/><path d="M318.54,230.881c-6.693,10.431-10.7,19.529-23.086,20.074l-29.246,7.587-8.728-30.158q4.8-4.049,13.479-7.055c3.527-1.222,20.975-2.163,26.308-14.136q1.4-3.145-4.673-44.123,11.187,5.39,13.7.3C310.889,154.037,324.043,222.333,318.54,230.881Z" opacity="0.484"/><path d="M308.628,115.334s16.574,10.01,24.018,33.8c6.239,19.936,5.5,81.77,0,90.318a38.133,38.133,0,0,1-30.42,17.5l-36.017,1.591-8.728-30.158q4.8-4.049,13.479-7.055c3.527-1.222,20.975-2.163,26.308-14.136q1.4-3.145-9.963-48.591-2.509-20.424,0-25.515Q291.9,123.755,308.628,115.334Z" fill="#d7741e"/><g transform="translate(266.084 206.304)" opacity="0.543"><path d="M2.051,25.871c-2.321-1.872-.9-5.99,1.741-7.488s5.822-1.123,8.817-1.2A33.7,33.7,0,0,0,33.089,9.51C37.339,5.99,41.157,1.2,46.624.468,45.369,4.942,39.978,9.3,36.178,11.981,25.152,19.768,13,22.689.2,27.125"/></g><path d="M205.556,185.328c-7.15-13.014-7.15-26.3,0-39.312,7.15,13.014,7.15,26.3,0,39.312Z" fill="#263238" opacity="0.35"/><g transform="translate(260.78 252.72)" opacity="0.2"><path d="M1.535,7.956A6.833,6.833,0,0,1,2.246,2.64,5.616,5.616,0,0,1,6.5.973a33.7,33.7,0,0,1,10.352,2.19A73.513,73.513,0,0,0,40.641,6.1a21.4,21.4,0,0,1-12.43,4.643A63.536,63.536,0,0,1,14.77,9.809L.861,7.937"/></g><path d="M164.765,464.391l.464,76.28,30.218-2.451,6.758-74.3Z" fill="#ffbe9d"/><path d="M197.809,523.039s-22.154,17.569-32.88,2.366l-2.8,7.359-12.611,52.5a7.312,7.312,0,0,0,3.553,8.421,5.606,5.606,0,0,0,6.439-1.379c9.125-9.688,42.489-45.5,42.172-50.3l-.133-12.893a6.579,6.579,0,0,0-3.737-6.037Z" fill="url(#b)"/><path d="M152.878,594.042l53.352-56.778v2.827c.262,3.07-1.067,4.268-2.527,6.234-4.324,5.822-16.268,18.851-44.591,46.032A6.8,6.8,0,0,1,152.9,594.1Z" fill="#fff" opacity="0.6"/><path d="M77.677,411.84l-34.049,65.8,27.177,16.573,43.959-63.033Z" fill="#ffbe9d"/><path d="M44.844,466.3,43.7,468.437S4.264,460.713.235,467.379l63.008,44.089,11.872-24.69C63.135,485.12,53.01,478.825,44.844,466.3Z" fill="url(#c)"/><g transform="translate(0.572 464.256)" opacity="0.6"><path d="M66.252,48.672l3.012-6.3L4.655.058S.934-.539,0,2.109Z" fill="#fff"/></g><path d="M122.327,409.743V578h11.457V396.359Z" fill="#cacaca"/><rect width="11.138" height="194.613" transform="translate(288.673 383.404)" fill="#cacaca"/><rect width="154.889" height="12.43" transform="translate(133.784 409.743)" fill="#cacaca"/><rect width="171.4" height="35.212" rx="7.02" transform="translate(133.784 348.173)" fill="url(#d)"/><path d="M165.008,255.79c6.583.315,29.33,4.529,51.638,11.149q.93.276,1.859.556l15.972-8.953,57.9,6.14s23.288,41.334,19.843,70.219-9.809,28.885-9.809,28.885l-75.5-4.156-.28-2.342-58.485-5.152-60.2,89.855-36.12-21.405,68.409-150.344S150.557,255.1,165.008,255.79Z" fill="url(#e)"/><path d="M95.632,170.614l18.87,89.912,89.107,8.256,57.452-3.95-20.817-19.918-24.168,5.167-8.592-87.011Z" fill="url(#f)"/><path d="M219.839,244.652c2.6,7.188,14.864.431,14.864.431l-.842,12.8-7.638,5.448s0,3.444,5.036,3.744a17.241,17.241,0,0,0,7.076-.524l.281,1.7a4.006,4.006,0,0,0,3.856,3.388,5,5,0,0,0,2.377-.393s5.354,3.875,10.408,1.067a14.077,14.077,0,0,0,6.384-8.274l.824-10.577,6.477-4.493s5.335-9.865-1.348-16.661a13.31,13.31,0,0,0-13.666-3l-10.371,3.444a10.6,10.6,0,0,0-7.376,1.966c-1.722,1.254-3.875,2.752-5.766,3.875C230.416,238.661,219.3,243.154,219.839,244.652Z" fill="#ffbe9d"/><path d="M160.01,212.809a5.616,5.616,0,1,1-5.616-5.616,5.616,5.616,0,0,1,5.616,5.616Z" fill="#fafafa"/><path d="M170.924,311.426l-.505.3a35.568,35.568,0,0,0-17.2,32.161l8.9,123.86,40.086,2.706L215.234,361l22.707-2.752-37.833-42.438A23.119,23.119,0,0,0,170.924,311.426Z" fill="url(#g)"/><path d="M259.118,54.279Q231.4,47.949,227.208,31.67q-11.192,19.876-18.923,19.876-1.48-12.418-1.651-16.25a20.476,20.476,0,0,1,.619-6.9,21.488,21.488,0,0,1,1.817-5.966c2.317-3.858,5.372-5.674,6.945-7.044,5.169-4.5,15.327-6.647,16.565-6.612,1.518.044,12.284-1.264,22.531,1.5,10.281,2.768,19.943,11.109,21.39,17.344q8.505,21.507,7.49,30.827-.341,3.129-14.555,18.31a40.572,40.572,0,0,1-1.968-7.546c-.69-7.079-.228-11.513-1.354-13.046Q263.884,53.124,259.118,54.279Z" fill-rule="evenodd" fill="url(#h)"/><path d="M261.132,52.151a9.768,9.768,0,0,1,6.019-.553q2.646.714,3.181,5.446-1.346,8.475-5.415,8.475c-2.392,0-5.255-7.488-5.763-9.883Q258.842,54.162,261.132,52.151Z" fill="#ffbe9d"/><ellipse cx="1" cy="2.808" rx="1" ry="2.808" transform="translate(264.46 63.648)" fill="#d6007a"/><circle cx="8.424" cy="8.424" r="8.424" transform="translate(230.828 46.8)" fill="none" stroke="#263238" stroke-width="1.872"/><circle cx="8.424" cy="8.424" r="8.424" transform="translate(210.236 46.8)" fill="none" stroke="#263238" stroke-width="1.872"/><line x1="5.616" transform="translate(226.148 55.224)" fill="none" stroke="#263238" stroke-width="1.872"/><g transform="translate(266.084 206.304)" opacity="0.543"><path d="M2.051,25.871c-2.321-1.872-.9-5.99,1.741-7.488s5.822-1.123,8.817-1.2A33.7,33.7,0,0,0,33.089,9.51C37.339,5.99,41.157,1.2,46.624.468,45.369,4.942,39.978,9.3,36.178,11.981,25.152,19.768,13,22.689.2,27.125"/></g></g></g></g></svg>