<svg xmlns="http://www.w3.org/2000/svg" width="61.992" height="51.996" viewBox="0 0 61.992 51.996">
  <g id="Warning" transform="translate(-1.004 -6.004)">
    <path id="Caminho_4" data-name="Caminho 4" d="M31,33.09A6,6,0,0,0,26.09,38a1,1,0,0,1,0,2A6,6,0,0,0,31,44.91a1,1,0,1,1,2,0A6,6,0,0,0,37.91,40a1,1,0,0,1,0-2A6,6,0,0,0,33,33.09a1,1,0,0,1-2,0ZM29.5,39A1.5,1.5,0,1,1,31,37.5,1.5,1.5,0,0,1,29.5,39ZM35,37a1,1,0,1,1-1,1A1,1,0,0,1,35,37Zm-2,4a1,1,0,1,1-1-1A1,1,0,0,1,33,41Z" fill="#fff"/>
    <path id="Caminho_5" data-name="Caminho 5" d="M8.67,52H55.33L32,14.19ZM33,30v1.06a8.13,8.13,0,0,1,3.9,1.62l1.39-1.39a1,1,0,1,1,1.42,1.42L38.32,34.1A8.13,8.13,0,0,1,39.94,38H41a1,1,0,0,1,0,2H39.94a8.13,8.13,0,0,1-1.62,3.9l1.39,1.39a1,1,0,1,1-1.42,1.42L36.9,45.32A8.13,8.13,0,0,1,33,46.94V48a1,1,0,0,1-2,0V46.94a8.13,8.13,0,0,1-3.9-1.62l-1.39,1.39a1,1,0,1,1-1.42-1.42l1.39-1.39A8.13,8.13,0,0,1,24.06,40H23a1,1,0,0,1,0-2h1.06a8.13,8.13,0,0,1,1.62-3.9l-1.39-1.39a1,1,0,0,1,1.42-1.42l1.39,1.39A8.13,8.13,0,0,1,31,31.06V30a1,1,0,0,1,2,0Z" fill="#fff"/>
    <path id="Caminho_6" data-name="Caminho 6" d="M62.42,52.06,35.05,7.7a3.59,3.59,0,0,0-6.1,0L1.58,52.06A3.9,3.9,0,0,0,4.9,58H59.1a3.9,3.9,0,0,0,3.32-5.94ZM58,53.49c-.45.78,2.92.51-51.12.51A1,1,0,0,1,6,52.47L31.15,11.76a1,1,0,0,1,1.7,0C60,55.71,58.42,52.7,58,53.49Z" fill="#fff"/>
  </g>
</svg>
